<?xml version="1.0" standalone="no"?>
<!DOCTYPE svg PUBLIC "-//W3C//DTD SVG 20010904//EN"
 "http://www.w3.org/TR/2001/REC-SVG-20010904/DTD/svg10.dtd">
<svg version="1.0" xmlns="http://www.w3.org/2000/svg"
 width="180.000000pt" height="180.000000pt" viewBox="0 0 180.000000 180.000000"
 preserveAspectRatio="xMidYMid meet">

<g transform="translate(0.000000,180.000000) scale(0.100000,-0.100000)"
fill="#000000" stroke="none">
<path d="M105 1781 c-48 -22 -69 -44 -90 -94 -13 -32 -15 -134 -15 -789 0
-709 2 -755 19 -793 22 -48 44 -69 94 -90 32 -13 134 -15 789 -15 709 0 755 2
793 19 48 22 69 44 90 94 13 32 15 134 15 787 0 653 -2 755 -15 787 -21 50
-42 72 -90 94 -38 18 -84 19 -795 19 -711 0 -757 -1 -795 -19z m5 -752 c0 -7
16 -9 51 -4 49 7 51 7 40 -14 -9 -16 -21 -21 -55 -21 -47 0 -56 -9 -56 -57 0
-25 2 -25 45 -20 36 5 43 4 39 -8 -4 -10 -20 -15 -44 -15 -48 0 -54 -9 -40
-59 17 -64 66 -63 94 2 14 31 14 31 15 6 1 -34 -41 -79 -73 -79 -31 0 -66 36
-66 66 0 13 -4 34 -9 47 -6 16 -6 40 1 67 8 32 8 48 -1 61 -9 16 -8 19 8 19
11 0 23 5 26 10 8 13 25 13 25 -1z m258 -76 c-2 -11 -14 -19 -30 -21 -43 -5
-65 -43 -60 -103 4 -33 36 -32 65 2 21 26 27 29 27 15 0 -19 -61 -86 -79 -86
-6 0 -21 10 -32 21 -42 42 -9 133 61 170 43 24 52 24 48 2z m1235 -8 c-3 -8
-16 -15 -29 -15 -32 0 -64 -37 -64 -76 0 -57 44 -68 70 -18 18 33 31 30 19 -5
-14 -39 -43 -63 -75 -63 -33 0 -44 16 -44 65 0 54 23 91 71 115 45 22 62 21
52 -3z m-1055 -58 c3 -66 1 -75 -22 -100 -66 -71 -159 13 -113 103 16 32 73
70 106 70 25 0 26 -2 29 -73z m90 40 l3 -28 29 31 c35 37 63 36 70 -3 l5 -27
28 30 c51 54 80 29 71 -61 -8 -77 -13 -99 -25 -99 -6 0 -7 13 -3 35 9 47 -3
105 -22 105 -19 0 -51 -54 -59 -102 -11 -65 -25 -53 -25 21 0 38 -5 73 -11 76
-18 12 -49 -27 -65 -82 -8 -29 -18 -53 -22 -53 -4 0 -7 43 -7 95 0 80 3 95 15
93 8 -2 16 -16 18 -31z m298 6 l11 -23 23 25 c31 33 49 32 62 -3 l11 -29 28
31 c23 26 31 29 46 20 15 -10 18 -24 16 -89 -3 -108 -16 -128 -23 -35 -4 60
-8 75 -22 78 -18 4 -51 -54 -63 -110 -9 -44 -20 -32 -17 17 5 58 -4 95 -23 95
-19 0 -51 -52 -59 -96 -11 -56 -30 -55 -24 2 4 27 3 71 -1 97 -7 41 -6 47 8
45 8 -2 20 -13 27 -25z m372 3 c6 -30 -18 -63 -59 -81 -33 -15 -37 -20 -28
-36 14 -27 34 -23 64 12 14 17 28 30 30 27 8 -8 -34 -67 -60 -84 -23 -15 -27
-15 -50 0 -19 13 -25 25 -25 54 0 49 18 81 60 110 39 26 63 25 68 -2z m80 12
c7 -7 12 -21 12 -32 0 -17 4 -15 20 12 23 38 55 45 44 10 -3 -13 -7 -23 -8
-23 -19 0 -44 -34 -60 -82 -12 -34 -24 -64 -27 -67 -3 -4 -6 39 -6 94 0 55 3
100 7 100 3 0 11 -5 18 -12z m378 -14 c8 -29 -21 -65 -67 -84 -33 -14 -36 -22
-14 -40 12 -10 20 -9 40 4 15 10 29 24 32 32 3 8 9 14 14 14 13 0 -15 -51 -40
-74 -24 -22 -69 -24 -82 -5 -14 23 -10 89 7 118 18 31 60 60 86 61 11 0 20
-10 24 -26z"/>
<path d="M466 909 c-23 -18 -27 -28 -24 -63 3 -34 7 -42 26 -44 49 -7 79 57
52 109 -13 24 -21 24 -54 -2z"/>
<path d="M1231 904 c-22 -28 -27 -44 -12 -44 16 0 61 41 61 56 0 23 -27 16
-49 -12z"/>
<path d="M1690 908 c-21 -23 -27 -48 -11 -48 19 0 64 47 57 58 -11 17 -23 15
-46 -10z"/>
</g>
</svg>
